HIERARCHY
ROOT root
{
	OFFSET	0	13.1	24.9
	CHANNELS 6  Xposition Yposition Zposition Xrotation Yrotation Zrotation
	JOINT spine_1
	{
		OFFSET	0	9.99999	0
		CHANNELS 3  Xrotation Yrotation Zrotation
		JOINT spine_2
		{
			OFFSET	0	112	-10
			CHANNELS 3  Xrotation Yrotation Zrotation
			JOINT spine_3
			{
				OFFSET	0	206.5	19.3
				CHANNELS 3  Xrotation Yrotation Zrotation
				JOINT spine_4
				{
					OFFSET	0	110.4	14.6
					CHANNELS 3  Xrotation Yrotation Zrotation
					JOINT neck_1
					{
						OFFSET	0	71.8	-50.3
						CHANNELS 3  Xrotation Yrotation Zrotation
						JOINT neck_2
						{
							OFFSET	0	86.2	-25.8
							CHANNELS 3  Xrotation Yrotation Zrotation
							JOINT head_ee
							{
								OFFSET	0	179.8	-8.7
								CHANNELS 3  Xrotation Yrotation Zrotation
								End Site
								{
									OFFSET	1	0	0
								}
							}
						}
					}
					JOINT left_clavicle
					{
						OFFSET	-43.2	22.4	-70.8
						CHANNELS 3  Xrotation Yrotation Zrotation
						JOINT left_shoulder
						{
							OFFSET	-93.9	-5.79999	48.7
							CHANNELS 3  Xrotation Yrotation Zrotation
							JOINT left_elbow
							{
								OFFSET	-291.4	-30.8	15.2
								CHANNELS 3  Xrotation Yrotation Zrotation
								JOINT left_lowarm_twist
								{
									OFFSET	-110.7	-3.89999	13.6
									CHANNELS 3  Xrotation Yrotation Zrotation
									JOINT left_hand
									{
										OFFSET	-110.7	-3.89999	13.6
										CHANNELS 3  Xrotation Yrotation Zrotation
										JOINT left_ee
										{
											OFFSET	-80.8	-5.10001	12.1
											CHANNELS 3  Xrotation Yrotation Zrotation
											End Site
											{
												OFFSET	1	0	0
											}
										}
									}
								}
							}
						}
					}
					JOINT right_clavicle
					{
						OFFSET	43.2	22.4	-70.8
						CHANNELS 3  Xrotation Yrotation Zrotation
						JOINT right_shoulder
						{
							OFFSET	93.9	-5.79999	48.7
							CHANNELS 3  Xrotation Yrotation Zrotation
							JOINT right_elbow
							{
								OFFSET	291.4	-30.8	15.2
								CHANNELS 3  Xrotation Yrotation Zrotation
								JOINT right_lowarm_twist
								{
									OFFSET	110.7	-3.89999	13.6
									CHANNELS 3  Xrotation Yrotation Zrotation
									JOINT right_hand
									{
										OFFSET	110.7	-3.89999	13.6
										CHANNELS 3  Xrotation Yrotation Zrotation
										JOINT right_ee
										{
											OFFSET	80.8	-5.10001	12.1
											CHANNELS 3  Xrotation Yrotation Zrotation
											End Site
											{
												OFFSET	1	0	0
											}
										}
									}
								}
							}
						}
					}
				}
			}
		}
	}
	JOINT left_hip
	{
		OFFSET	-82.8	-127.5	0.300001
		CHANNELS 3  Xrotation Yrotation Zrotation
		JOINT left_knee
		{
			OFFSET	-28.2	-396.7	2.2
			CHANNELS 3  Xrotation Yrotation Zrotation
			JOINT left_ankle
			{
				OFFSET	-11.7	-411.3	35.4
				CHANNELS 3  Xrotation Yrotation Zrotation
				JOINT left_toes
				{
					OFFSET	0	-60	-88.6
					CHANNELS 3  Xrotation Yrotation Zrotation
					JOINT left_foot_ee
					{
						OFFSET	-22.5	-16.5	-42.2
						CHANNELS 3  Xrotation Yrotation Zrotation
						End Site
						{
							OFFSET	1	0	0
						}
					}
				}
			}
		}
	}
	JOINT right_hip
	{
		OFFSET	82.8	-127.5	0.300001
		CHANNELS 3  Xrotation Yrotation Zrotation
		JOINT right_knee
		{
			OFFSET	28.2	-396.7	2.2
			CHANNELS 3  Xrotation Yrotation Zrotation
			JOINT right_ankle
			{
				OFFSET	11.7	-411.3	35.4
				CHANNELS 3  Xrotation Yrotation Zrotation
				JOINT right_toes
				{
					OFFSET	0	-60	-88.6
					CHANNELS 3  Xrotation Yrotation Zrotation
					JOINT right_foot_ee
					{
						OFFSET	22.5	-16.5	-42.2
						CHANNELS 3  Xrotation Yrotation Zrotation
						End Site
						{
							OFFSET	1	0	0
						}
					}
				}
			}
		}
	}
}
MOTION
Frames: 15
Frame Time: 0.02
932.104 723.766 -1548.92 -81.5745 85.0386 74.7048 2.30229 0.674601 5.35016 2.31814 0.333294 5.38212 2.34751 -0.587493 5.3604 2.30753 0.265188 5.3859 -6.90437 3.00559 -13.4877 -6.31782 15.3622 -13.0286 -0.0 0.0 -0.0 -8.55386 11.1133 -13.5965 -29.0297 -53.0868 56.9301 0.424822 -11.8844 0.0442175 -81.0017 -7.94878 5.26513 1.30625 -25.7061 -2.40782 -0.0 0.0 -0.0 11.2328 2.98916 -22.4001 1.1723 3.96746 -72.8135 3.07088 56.6686 -1.65615 40.0627 0.352526 5.00278 5.17648 -13.0514 -42.0404 0.0 0.0 0.0 21.231 12.2319 -4.09299 -17.3866 0.317594 2.63901 16.5511 5.94973 -2.29509 -31.4972 0.0 0.0 -0.0 0.0 -0.0 12.7762 16.7307 -3.60713 -1.69527 -0.0660808 -0.251763 38.7487 -20.007 4.91135 -32.9711 0.0 0.0 0.0 0.0 0.0 
927.115 723.422 -1549.9 -75.251 84.3986 69.0859 2.43091 0.588962 5.27488 2.44635 0.252596 5.30157 2.46721 -0.642548 5.26864 2.42855 0.196388 5.30394 -7.70508 2.54153 -13.1559 -7.17701 14.1234 -12.6438 -0.0 0.0 -0.0 -8.60609 11.1164 -13.6912 -29.2839 -52.4548 57.9949 0.417145 -11.6756 0.04265 -81.9656 -8.07063 5.24896 1.65797 -28.4983 -1.44081 -0.0 0.0 -0.0 11.1098 2.92606 -22.1327 0.994599 4.39202 -72.649 3.32905 58.7543 -1.87444 39.7525 0.336453 4.96652 5.36202 -13.4475 -43.8118 0.0 0.0 0.0 19.1258 11.6026 -4.41348 -13.1769 0.314521 1.99327 13.0992 1.22632 -1.85279 -32.5956 0.0 0.0 -0.0 0.0 -0.0 13.5885 16.6053 -4.20064 -1.61955 -0.0632885 -0.240478 37.4039 -19.9571 4.78056 -34.9108 0.0 0.0 0.0 0.0 0.0 
919.458 724.442 -1545.35 -71.3229 83.6364 65.7366 2.60731 0.569255 5.12428 2.62188 0.242472 5.15003 2.64062 -0.611446 5.11943 2.60412 0.203638 5.15171 -7.47086 2.12971 -13.6194 -6.90017 13.7368 -13.2344 -0.0 0.0 -0.0 -8.69517 11.2416 -13.8124 -29.1601 -53.6405 59.587 0.398604 -11.17 0.0389781 -82.6306 -8.15451 5.2366 1.99171 -28.8911 0.487423 -0.0 0.0 -0.0 11.0768 0.992724 -21.9612 0.784564 4.09221 -72.1184 3.38353 59.1648 -1.92111 37.1679 0.210212 4.66109 5.49875 -13.1986 -45.0006 0.0 0.0 0.0 17.9066 11.3107 -3.7522 -11.6268 0.301442 1.75581 14.0946 -3.42201 -2.01041 -31.1519 0.0 0.0 -0.0 0.0 -0.0 13.3793 16.6629 -5.08707 -1.3266 -0.0523455 -0.196851 34.452 -22.2715 4.5333 -38.4986 0.0 0.0 0.0 0.0 0.0 
917.736 727.639 -1540.34 -62.717 82.8946 57.2919 2.66525 0.535865 5.00414 2.67915 0.216764 5.02802 2.69503 -0.611908 4.99543 2.66027 0.183675 5.02933 -8.27934 2.64737 -13.3958 -7.74876 14.3882 -12.7736 -0.0 0.0 -0.0 -8.4965 11.5616 -13.342 -26.9149 -53.4047 62.1893 0.344732 -9.69113 0.0292242 -82.8933 -8.1876 5.23144 2.16435 -28.6291 1.70745 -0.0 0.0 -0.0 11.0627 1.4466 -21.9571 0.358712 4.03279 -71.8974 3.43352 59.5329 -1.96412 34.0008 0.0745322 4.27967 5.78443 -12.4681 -47.5212 0.0 0.0 0.0 17.453 11.5367 -3.49376 -10.2449 0.284369 1.54446 14.0316 -3.11712 -1.99992 -29.4803 0.0 0.0 -0.0 0.0 -0.0 13.4571 16.3149 -5.09163 -0.294279 -0.0120053 -0.0435644 35.1922 -22.8529 4.62482 -40.1553 0.0 0.0 0.0 0.0 0.0 
911.551 729.54 -1539.63 -61.8996 82.6928 56.4481 2.71129 0.593021 4.92776 2.72475 0.278647 4.95542 2.74569 -0.534296 4.93446 2.71181 0.250727 4.95691 -7.7629 1.97071 -13.0309 -7.24971 12.9643 -12.6218 -0.0 0.0 -0.0 -8.24688 10.0725 -13.3716 -27.4144 -54.6961 62.9536 0.377022 -10.5792 0.0349065 -81.6061 -8.02522 5.25523 2.05101 -28.5983 1.00405 -0.0 0.0 -0.0 10.993 1.06884 -21.7879 -0.410403 3.45123 -71.9946 3.08212 56.7645 -1.66555 35.5837 0.139703 4.47122 5.85936 -11.0294 -47.811 0.0 0.0 0.0 16.2494 10.8929 -3.4415 -7.45179 0.234322 1.11882 13.2677 -6.93269 -1.92559 -31.6408 0.0 0.0 -0.0 0.0 -0.0 13.1745 16.7575 -5.1895 -0.761759 -0.0306157 -0.112891 32.1213 -22.3106 4.28388 -40.1942 0.0 0.0 0.0 0.0 0.0 
903.766 728.695 -1541.05 -63.5037 82.9729 58.197 2.74413 0.592582 4.73838 2.75657 0.290216 4.7664 2.7777 -0.48921 4.75014 2.74633 0.266246 4.7678 -7.56242 2.60448 -12.824 -7.05648 14.026 -12.3163 -0.0 0.0 -0.0 -8.41432 9.61138 -13.8318 -24.5396 -54.9193 65.6534 0.262233 -7.40161 0.0169617 -82.5816 -8.14833 5.23754 2.23845 -28.6836 2.15032 -0.0 0.0 -0.0 10.9588 -1.09246 -21.577 -0.852023 2.95854 -72.2186 2.95724 55.6704 -1.56175 33.5631 0.0574477 4.22639 6.11559 -8.96482 -49.6919 0.0 0.0 0.0 15.1436 10.242 -3.51128 -7.25119 0.22993 1.08835 15.318 -11.1569 -2.25243 -29.5035 0.0 0.0 -0.0 0.0 -0.0 13.5285 16.4831 -5.15636 -3.10556 -0.115351 -0.462588 36.6425 -21.1453 4.73185 -40.2439 0.0 0.0 0.0 0.0 0.0 
897.084 734.392 -1536.81 -62.4263 82.5666 56.6067 2.76463 0.609391 4.7056 2.7769 0.30907 4.73475 2.79942 -0.463583 4.72216 2.76843 0.287149 4.73613 -7.70723 3.48667 -11.9042 -7.27181 14.9782 -11.1813 -0.0 0.0 -0.0 -8.24449 8.65827 -13.817 -23.2681 -55.9938 66.5236 0.284306 -8.0168 0.0199226 -82.9019 -8.18868 5.23127 2.27539 -28.5501 2.45016 -0.0 0.0 -0.0 10.8057 -3.90533 -21.0378 -2.95902 1.94914 -72.2234 2.83198 54.5077 -1.45903 31.9516 -0.00192152 4.02918 6.27334 -7.03759 -50.5852 0.0 0.0 0.0 14.4941 9.95182 -3.14489 -6.39413 0.209962 0.958342 14.6249 -12.6046 -2.17648 -31.3214 0.0 0.0 -0.0 0.0 -0.0 12.955 16.197 -4.95935 -3.11896 -0.115794 -0.464597 31.6548 -23.6729 4.2633 -39.9949 0.0 0.0 0.0 0.0 0.0 
888.203 730.73 -1533.09 -65.972 82.8901 60.6705 2.86498 0.799661 4.52887 2.87624 0.510165 4.57046 2.91399 -0.228562 4.59311 2.88491 0.498927 4.57169 -8.75075 3.96916 -11.286 -8.39251 15.2869 -10.2861 -0.0 0.0 -0.0 -8.22748 7.68496 -14.0891 -19.9378 -56.9988 69.2883 0.198387 -5.61287 0.00972507 -83.5283 -8.26748 5.21835 2.51937 -28.6979 3.92384 -0.0 0.0 -0.0 10.448 -5.54063 -20.1736 -3.99085 2.25196 -71.5912 2.63988 52.5862 -1.30449 30.4175 -0.0532627 3.83997 6.66294 -5.19903 -54.071 0.0 0.0 0.0 14.4206 7.43903 -3.82406 -9.03089 0.265167 1.35917 16.1668 -17.194 -2.46879 -28.5349 0.0 0.0 -0.0 0.0 -0.0 11.8512 13.8966 -4.59666 -1.70052 -0.0662739 -0.252546 35.0748 -23.068 4.61798 -40.1527 0.0 0.0 0.0 0.0 0.0 
884.733 730.023 -1533.45 -65.0682 82.6624 59.9166 2.94454 0.853184 4.26609 2.95448 0.580252 4.31162 2.99538 -0.111449 4.34899 2.96946 0.57614 4.31217 -8.5357 4.69802 -9.12679 -8.30471 15.1621 -7.99251 -0.0 0.0 -0.0 -8.50182 7.11079 -14.7969 -19.1566 -58.9805 67.8493 0.261889 -7.39199 0.0169172 -83.4366 -8.25594 5.2203 2.547 -28.7114 4.09227 -0.0 0.0 -0.0 10.3823 -5.63841 -20.0345 -4.62905 1.179 -71.0413 2.3376 49.1799 -1.06986 31.8695 -0.00480013 4.01908 6.57128 -3.15939 -52.0038 0.0 0.0 0.0 13.6701 8.07209 -3.80029 -8.03457 0.246477 1.20742 16.5037 -17.7819 -2.52811 -27.4741 0.0 0.0 -0.0 0.0 -0.0 12.5567 11.9217 -4.84665 -4.15179 -0.148538 -0.619721 35.4285 -23.0503 4.65437 -40.2065 0.0 0.0 0.0 0.0 0.0 
881.214 730.981 -1529.72 -69.6801 82.7052 64.5052 2.90955 0.835477 4.10805 2.91875 0.57261 4.15278 2.95781 -0.0965246 4.19089 2.93375 0.565979 4.15369 -8.82467 5.63272 -9.03188 -8.61404 16.8122 -7.64019 -0.0 0.0 -0.0 -8.38334 6.75601 -14.678 -16.785 -60.8447 68.2875 0.238844 -6.74782 0.0140809 -84.6596 -8.40935 5.19282 2.82695 -28.5564 5.9495 -0.0 0.0 -0.0 10.1351 -6.61587 -19.4596 -6.28771 1.44949 -70.4036 2.05915 45.5631 -0.864884 28.4896 -0.110562 3.60038 6.36397 -1.84301 -49.1187 0.0 0.0 0.0 13.3638 6.211 -3.85778 -7.77576 0.241191 1.16806 16.0753 -19.5217 -2.50447 -26.5697 0.0 0.0 -0.0 0.0 -0.0 12.7967 12.1871 -4.41354 -4.63418 -0.162871 -0.692366 37.8932 -22.6769 4.89419 -40.1631 0.0 0.0 0.0 0.0 0.0 
877.332 730.407 -1529.79 -70.7171 82.7817 65.5908 2.90459 0.753131 4.05279 2.91359 0.493937 4.09241 2.94645 -0.165581 4.11874 2.92311 0.486418 4.09331 -8.98685 6.36794 -8.20554 -8.83062 17.5997 -6.61754 -0.0 0.0 -0.0 -8.28032 6.54049 -14.5443 -14.88 -60.8573 69.4746 0.23154 -6.54328 0.0132356 -84.6847 -8.41249 5.19222 2.81999 -28.4162 5.97756 -0.0 0.0 -0.0 10.0631 -6.55226 -19.3252 -7.70751 1.10747 -70.3573 1.8072 41.8321 -0.690732 29.1661 -0.0913762 3.68466 6.42502 -0.456007 -49.0269 0.0 0.0 0.0 13.3108 5.31079 -4.22952 -9.00323 0.264684 1.35495 17.4843 -21.7376 -2.76091 -25.1954 0.0 0.0 -0.0 0.0 -0.0 12.625 11.5941 -4.4393 -5.06099 -0.175042 -0.756737 39.4767 -21.9409 5.02784 -40.1434 0.0 0.0 0.0 0.0 0.0 
873.349 732.991 -1528.84 -71.9128 82.8967 66.5823 2.88853 0.76661 3.97533 2.89717 0.512305 4.01597 2.93081 -0.13629 4.04617 2.90833 0.503911 4.01703 -9.50206 7.13774 -7.04256 -9.4269 18.2091 -5.18842 -0.0 0.0 -0.0 -8.31965 6.76238 -14.5524 -13.9336 -62.646 67.8393 0.253149 -7.14789 0.0158112 -84.4982 -8.38915 5.19663 2.88022 -28.3119 6.41528 -0.0 0.0 -0.0 10.4978 -7.22849 -20.1062 -8.60725 0.109501 -69.0318 1.54675 37.4573 -0.524438 27.9879 -0.124149 3.53773 6.52424 2.19775 -48.5695 0.0 0.0 0.0 13.1662 5.10346 -3.78473 -9.2836 0.269487 1.3977 18.0828 -22.9269 -2.88023 -24.338 0.0 0.0 -0.0 0.0 -0.0 13.0327 9.6327 -4.26 -5.17158 -0.178117 -0.77343 39.9284 -23.2097 5.10591 -40.2502 0.0 0.0 0.0 0.0 0.0 
870.292 727.955 -1528.29 -78.3901 83.0016 73.0192 2.90259 0.714207 3.94308 2.91112 0.462055 3.98046 2.94092 -0.179625 4.00312 2.91885 0.454335 3.98134 -10.0104 7.25281 -6.20622 -9.98701 17.8335 -4.24736 -0.0 0.0 -0.0 -8.47875 7.16444 -14.7354 -14.7936 -64.0995 64.9532 0.351361 -9.87384 0.0303505 -83.9799 -8.32417 5.2085 2.8483 -27.3593 6.70321 -0.0 0.0 -0.0 10.4667 -8.43098 -19.9167 -8.72573 -0.956759 -68.5219 1.31224 33.0241 -0.389019 27.375 -0.139998 3.46105 6.57296 4.04892 -47.9675 0.0 0.0 0.0 12.8161 5.936 -3.55824 -8.0017 0.245815 1.20242 17.9909 -21.9854 -2.84029 -23.7728 0.0 0.0 -0.0 0.0 -0.0 13.4462 8.48702 -4.29695 -5.69175 -0.192149 -0.852024 39.8681 -24.6163 5.14292 -39.8992 0.0 0.0 0.0 0.0 0.0 
867.887 729.093 -1527.77 -83.0812 82.8558 77.8782 3.03411 0.748918 3.90953 3.04247 0.498827 3.94917 3.07431 -0.128956 3.97842 3.05258 0.500479 3.94896 -10.0305 7.5401 -5.87165 -10.0241 18.1473 -3.84141 -0.0 0.0 -0.0 -8.61732 7.46362 -14.9086 -16.5461 -64.9682 60.7651 0.424555 -11.8771 0.0441624 -84.5381 -8.39415 5.1957 2.68483 -24.6291 7.03137 -0.0 0.0 -0.0 10.5075 -10.0586 -19.8044 -8.66869 -2.91482 -67.6203 1.05545 27.6015 -0.259264 26.9815 -0.149742 3.41173 6.42319 5.57078 -45.5796 0.0 0.0 0.0 12.4777 8.11641 -3.14712 -6.99869 0.224249 1.05002 16.0267 -19.1233 -2.48876 -22.568 0.0 0.0 -0.0 0.0 -0.0 13.7451 7.0841 -4.72548 -6.84331 -0.22067 -1.02644 37.9547 -26.4236 5.01301 -39.6733 0.0 0.0 0.0 0.0 0.0 
860.028 729.578 -1527.94 -90.5525 82.9533 85.3245 2.99735 0.76822 3.76726 3.00509 0.527121 3.80843 3.03788 -0.08122 3.84382 3.01765 0.526411 3.80853 -10.5467 7.63944 -6.38255 -10.5489 18.6543 -4.22711 -0.0 0.0 -0.0 -8.73838 8.26724 -14.8821 -17.1323 -65.6384 58.4004 0.495829 -13.8 0.060002 -85.4856 -8.51257 5.17239 2.50757 -19.0524 8.58829 -0.0 0.0 -0.0 10.4762 -11.9217 -19.5077 -8.27695 -5.48921 -66.7368 0.84433 22.6972 -0.169462 27.0471 -0.148142 3.41996 6.40472 7.71245 -44.0968 0.0 0.0 0.0 12.4419 9.71979 -3.11637 -6.67434 0.216704 1.00081 12.5748 -18.5114 -1.97362 -21.227 0.0 0.0 -0.0 0.0 -0.0 13.9107 6.20777 -4.18812 -8.49002 -0.255348 -1.27675 38.8295 -25.7637 5.07875 -39.1683 0.0 0.0 0.0 0.0 0.0 
